# File created by Blade
# Date/Time:  Tue Apr 07 21:33:03 2015
# Frame Rate: 120.000 fps
#------------------------------------------------------
:FULLY-SPECIFIED
:DEGREES
868
root -13.002938 32.788988 13.977662 20.298611 -53.672933 -7.289000
Spine -8.530198 -7.391172 -3.196798
Head 28.634034 -9.644070 4.734592
LeftShoulder -20.411380 45.057890 14.214808
LeftArm 62.259717 -34.622244 -82.072625
LeftForeArm -8.292471 0.000000 5.563531
LeftHand 16.825079 -0.000000 24.032055
LeftHandThumb1 -26.253704 0.000000 33.147579
RightShoulder -7.574069 0.115550 -27.783967
RightArm 14.955721 21.902502 48.723446
RightForeArm -9.532675 0.000000 37.282990
RightHand 13.774683 -0.000000 -19.718915
RightHandThumb1 -24.326973 -0.000000 -32.862282
LeftUpLeg -32.403919 -4.298209 9.414056
LeftLeg 17.912411 -0.000000 -0.000000
LeftFoot -0.459981 11.990117 -29.531973
LeftToeBase -5.175968 -0.000000 0.000000
RightUpLeg -7.215089 0.566855 2.789344
RightLeg 12.609002 -0.000000 -0.000000
RightFoot -15.447600 -20.378185 7.147323
RightToeBase -3.253419 -0.000000 0.000000
869
root -13.076794 32.843579 14.094030 20.656951 -53.508916 -7.842894
Spine -8.419690 -7.546767 -2.902622
Head 28.507641 -9.596248 4.603544
LeftShoulder -20.197213 45.148105 14.215062
LeftArm 62.208035 -34.019088 -80.984148
LeftForeArm -7.925748 -0.000000 5.923136
LeftHand 16.728847 0.000000 24.096642
LeftHandThumb1 -26.253704 0.000000 33.147579
RightShoulder -7.700663 -0.245409 -27.852287
RightArm 14.563897 21.976398 48.518718
RightForeArm -9.095851 -0.000000 37.084184
RightHand 14.070478 -0.000000 -19.055388
RightHandThumb1 -24.326973 -0.000000 -32.862282
LeftUpLeg -32.107411 -4.691269 9.870948
LeftLeg 17.952881 -0.000000 -0.000000
LeftFoot -0.679214 11.913259 -30.124161
LeftToeBase -5.104304 -0.000000 0.000000
RightUpLeg -6.905227 0.764166 3.142763
RightLeg 12.337087 -0.000000 -0.000000
RightFoot -14.786369 -20.802116 6.831726
RightToeBase -3.255408 -0.000000 0.000000
870
root -13.148671 32.902258 14.200801 21.080856 -53.411017 -8.453697
Spine -8.333848 -7.663709 -2.625716
Head 28.445598 -9.517783 4.524782
LeftShoulder -20.026022 45.092095 14.282941
LeftArm 62.007169 -33.331082 -79.659429
LeftForeArm -7.444461 -0.000000 6.087802
LeftHand 16.714543 -0.000000 24.177893
LeftHandThumb1 -26.253704 0.000000 33.147579
RightShoulder -8.009915 -0.118485 -27.938617
RightArm 14.304409 21.657486 48.377695
RightForeArm -9.106462 -0.000000 36.484887
RightHand 14.198795 -0.000000 -19.112655
RightHandThumb1 -24.326973 -0.000000 -32.862282
LeftUpLeg -31.772514 -4.845165 10.277497
LeftLeg 17.886860 -0.000000 -0.000000
LeftFoot -0.769068 11.735004 -30.610853
LeftToeBase -4.875257 -0.000000 0.000000
RightUpLeg -6.637449 0.906255 3.516610
RightLeg 12.080713 -0.000000 -0.000000
RightFoot -14.112821 -21.071955 6.628490
RightToeBase -2.922617 -0.000000 0.000000
871
root -13.221679 32.962492 14.301411 21.543476 -53.368077 -9.080309
Spine -8.284842 -7.750086 -2.341964
Head 28.391323 -9.383573 4.406224
LeftShoulder -19.870817 45.082250 14.301744
LeftArm 61.684035 -32.622119 -78.036119
LeftForeArm -7.105317 -0.000000 6.199877
LeftHand 16.800224 -0.000000 24.000422
LeftHandThumb1 -26.253704 0.000000 33.147579
RightShoulder -7.787899 -0.672686 -27.978937
RightArm 13.800959 22.014719 48.155505
RightForeArm -8.891414 -0.000000 36.308985
RightHand 14.617182 -0.000000 -18.587499
RightHandThumb1 -24.326973 -0.000000 -32.862282
LeftUpLeg -31.452460 -4.802856 10.610390
LeftLeg 17.813472 -0.000000 -0.000000
LeftFoot -0.766250 11.514618 -30.883310
LeftToeBase -4.702242 -0.000000 0.000000
RightUpLeg -6.402391 1.002589 3.876695
RightLeg 11.875979 -0.000000 -0.000000
RightFoot -13.525830 -21.173996 6.494595
RightToeBase -2.709659 -0.000000 0.000000
872
root -13.291373 33.026075 14.392914 22.054029 -53.365308 -9.742600
Spine -8.257355 -7.822223 -2.065334
Head 28.360974 -9.250458 4.333818
LeftShoulder -19.664552 44.925080 14.434965
LeftArm 61.129921 -31.853596 -76.192572
LeftForeArm -6.887304 -0.000000 6.226823
LeftHand 16.943223 0.000000 23.919624
LeftHandThumb1 -26.253704 0.000000 33.147579
RightShoulder -7.980943 -0.216931 -28.173509
RightArm 13.295447 21.345666 47.946352
RightForeArm -8.848721 -0.000000 35.575193
RightHand 14.842815 -0.000000 -18.518857
RightHandThumb1 -24.326973 -0.000000 -32.862282
LeftUpLeg -31.139105 -4.676302 10.955981
LeftLeg 17.688198 -0.000000 -0.000000
LeftFoot -0.659249 11.260691 -31.189433
LeftToeBase -4.610395 -0.000000 0.000000
RightUpLeg -6.183416 1.110219 4.232071
RightLeg 11.661663 -0.000000 -0.000000
RightFoot -12.946942 -21.091369 6.472533
RightToeBase -2.653343 -0.000000 0.000000
873
root -13.355256 33.086960 14.478403 22.530759 -53.410067 -10.312847
Spine -8.251197 -7.883369 -1.893144
Head 28.299445 -9.103244 4.390879
LeftShoulder -19.544459 44.742138 14.579409
LeftArm 60.791357 -31.198010 -74.632942
LeftForeArm -6.589380 -0.000000 6.160951
LeftHand 17.111913 -0.000000 23.740751
LeftHandThumb1 -26.253704 0.000000 33.147579
RightShoulder -8.033426 -0.182208 -28.188673
RightArm 12.968745 21.054506 47.662435
RightForeArm -8.913571 -0.000000 35.016229
RightHand 14.871297 0.000000 -18.474657
RightHandThumb1 -24.326973 -0.000000 -32.862282
LeftUpLeg -30.855874 -4.457979 11.205178
LeftLeg 17.535889 -0.000000 -0.000000
LeftFoot -0.609577 11.011601 -31.634706
LeftToeBase -4.304704 -0.000000 0.000000
RightUpLeg -6.032516 1.132159 4.520420
RightLeg 11.528792 -0.000000 -0.000000
RightFoot -12.330720 -20.953762 6.261184
RightToeBase -2.795865 -0.000000 0.000000
874
root -13.414863 33.146059 14.554700 23.052753 -53.482928 -10.901297
Spine -8.286831 -7.891671 -1.742377
Head 28.237951 -8.987500 4.461417
LeftShoulder -19.356928 44.508588 14.813228
LeftArm 60.617695 -30.713965 -73.386073
LeftForeArm -6.187967 -0.000000 5.948589
LeftHand 17.217247 0.000000 23.461674
LeftHandThumb1 -26.253704 0.000000 33.147579
RightShoulder -8.068524 -0.076258 -28.208101
RightArm 12.576007 20.750136 47.384761
RightForeArm -9.198749 -0.000000 34.419511
RightHand 14.877911 -0.000000 -18.167651
RightHandThumb1 -24.326973 -0.000000 -32.862282
LeftUpLeg -30.592234 -4.225097 11.503462
LeftLeg 17.387340 -0.000000 -0.000000
LeftFoot -0.582930 10.653050 -32.276289
LeftToeBase -3.779249 -0.000000 0.000000
RightUpLeg -5.922557 1.215780 4.786920
RightLeg 11.433641 -0.000000 -0.000000
RightFoot -11.689697 -20.750751 6.099507
RightToeBase -2.688857 -0.000000 0.000000
875
root -13.474940 33.199763 14.628293 23.512233 -53.569966 -11.405181
Spine -8.348887 -7.921425 -1.667204
Head 28.187588 -8.907316 4.608962
LeftShoulder -19.166704 44.333603 15.098023
LeftArm 60.622820 -30.409112 -72.532087
LeftForeArm -5.744493 -0.000000 5.766018
LeftHand 17.407996 -0.000000 23.049527
LeftHandThumb1 -26.253704 0.000000 33.147579
RightShoulder -8.074940 -0.015009 -28.226934
RightArm 12.269071 20.396538 47.143110
RightForeArm -9.510990 -0.000000 33.707336
RightHand 14.851288 -0.000000 -18.185726
RightHandThumb1 -24.326973 -0.000000 -32.862282
LeftUpLeg -30.291995 -3.944197 11.721672
LeftLeg 17.163583 -0.000000 -0.000000
LeftFoot -0.537849 10.309620 -32.787249
LeftToeBase -3.412607 -0.000000 0.000000
RightUpLeg -5.822089 1.279721 4.992342
RightLeg 11.368850 -0.000000 -0.000000
RightFoot -11.199082 -20.608117 5.954137
RightToeBase -2.099665 -0.000000 0.000000
876
root -13.526324 33.250055 14.699430 24.007378 -53.629976 -11.901674
Spine -8.450783 -7.979254 -1.539405
Head 28.126035 -8.804234 4.667289
LeftShoulder -18.958299 44.080776 15.329452
LeftArm 60.654078 -30.268329 -71.832394
LeftForeArm -5.334499 -0.000000 5.610691
LeftHand 17.254996 -0.000000 22.403049
LeftHandThumb1 -26.253704 0.000000 33.147579
RightShoulder -8.058383 0.024493 -28.206227
RightArm 12.046813 20.197739 46.830153
RightForeArm -9.864753 -0.000000 33.014447
RightHand 14.976306 0.000000 -18.096256
RightHandThumb1 -24.326973 -0.000000 -32.862282
LeftUpLeg -30.021811 -3.808853 12.001922
LeftLeg 16.885390 -0.000000 -0.000000
LeftFoot -0.547923 10.043542 -33.308585
LeftToeBase -2.819083 -0.000000 0.000000
RightUpLeg -5.798581 1.279837 5.165165
RightLeg 11.347896 -0.000000 -0.000000
RightFoot -11.017870 -20.288157 6.254718
RightToeBase -1.069678 -0.000000 0.000000
877
root -13.583063 33.295261 14.768409 24.432156 -53.689349 -12.300591
Spine -8.577215 -8.079243 -1.495762
Head 28.025197 -8.667959 4.827132
LeftShoulder -18.717195 43.751143 15.665637
LeftArm 60.635178 -30.177774 -71.276306
LeftForeArm -4.807884 -0.000000 5.478247
LeftHand 16.976988 0.000000 22.312761
LeftHandThumb1 -26.253704 0.000000 33.147579
RightShoulder -8.026454 0.138938 -28.204316
RightArm 11.817284 19.866448 46.543442
RightForeArm -9.966937 -0.000000 32.180541
RightHand 15.217901 -0.000000 -18.077164
RightHandThumb1 -24.326973 -0.000000 -32.862282
LeftUpLeg -29.722353 -3.712592 12.234902
LeftLeg 16.528406 -0.000000 -0.000000
LeftFoot -0.545282 9.787393 -33.681407
LeftToeBase -2.473442 -0.000000 0.000000
RightUpLeg -5.772726 1.281460 5.275533
RightLeg 11.315272 -0.000000 -0.000000
RightFoot -10.794489 -20.087340 6.263511
RightToeBase -0.459466 -0.000000 0.000000
